<svg width="500" height="500" xmlns="http://www.w3.org/2000/svg">
  <path fill="#00356e" d="M480.508 220.328V65.295l-16.869-9.754C404.475 21.393 337.115 3.344 268.836 3.344S133.18 21.394 74.016 55.541l-14.23 8.23L18.034 84.23h41.77a36.15 36.15 0 0 0 20.033-6.066c5.934-3.95 5.426-3.131 5.426-3.131C141 42.853 204.46 25.853 268.82 25.853c64.36 0 127.82 17.016 183.557 49.18L458 78.279v142.393c1.738 55.05-16.525 106.394-54.279 152.23-31.688 38.475-76.705 71.901-130.164 96.705l-4.82 2.23-4.786-2.296c-90.115-43.262-141.23-91.869-165.705-157.607-16.05-43.114-20.115-92.082-20.23-146.688-.016-8.541-6.983-15.443-15.524-15.443H23.77l20.607 11.87c6.869 3.95 11.148 11.245 11.279 19.163.852 50.689 5.836 96.869 21.508 138.95 26.672 71.624 81.279 124.05 177.05 170.034l14.36 6.885L283.016 490c56.492-26.197 104.23-61.754 138.066-102.803 41.262-50.082 61.262-106.23 59.426-166.886Z"/>
  <path fill="#006fb9" d="M446.721 220.672V84.77a355.641 355.641 0 0 0-178.655-47.655A355.73 355.73 0 0 0 91.852 84.23h199.23c131.164 2.229 131.131 197.344 0 199.557h-28.36v88.508h-65.574V218.213h93.295c17.147-.41 23.18-7.262 25.18-9.54 5.246-5.968 8.262-14.952 8.262-24.673 0-9.705-3-18.705-8.246-24.672-2-2.262-8.032-9.131-25.196-9.541H78.885l3.05 1.656c3.803 2.082 6.573 5.737 7.31 10.016.05.279.083.508.083.656-.246 137.918 22.328 221.574 178.754 296.901.246.115.475.246.738.361 95.737-44.41 181.491-125.754 177.934-238.721Z"/>
</svg>
